<svg width="962" height="310" viewBox="0 0 962 310" fill="none" xmlns="http://www.w3.org/2000/svg">
<rect width="962" height="310" rx="150" fill="#CABEB4"/>
<g clip-path="url(#clip0_1_34)">
<rect width="802" height="226" transform="translate(80 42)" fill="#CABEB4"/>
<path d="M168.267 139.438C179.763 139.438 191.259 139.438 202.757 139.438C207.925 139.438 210.949 136.665 210.902 132C210.87 127.847 207.895 125.462 202.764 125.462C191.261 125.462 179.763 125.477 168.275 125.462C163.716 125.453 163.772 125.404 163.678 120.845C163.52 113.756 163.865 106.578 162.949 99.5849C161.734 90.3837 154.022 84.8079 144.677 85.8576C137.096 86.715 130.471 94.0386 130.542 102.826C130.691 123.482 130.862 144.136 130.454 164.783C130.282 174.071 138.474 182.609 147.996 182.408C168.906 181.945 189.833 182.302 210.743 182.214C213.053 182.205 214.33 183.127 215.388 185.036C222.429 197.76 229.493 210.46 236.581 223.143C239.189 227.799 241.89 232.393 244.592 237.082C250.269 233.792 255.563 230.766 260.802 227.662C265.376 224.962 269.982 222.318 274.382 219.351C278.141 216.821 278.933 212.116 276.614 208.43C274.258 204.695 270.42 203.675 266.457 205.86C262.644 207.954 258.869 210.128 254.647 212.504C248.185 200.961 241.803 189.643 235.484 178.284C232.154 172.294 229.07 166.174 225.639 160.248C222.945 155.577 218.472 154.477 213.485 154.492C198.544 154.558 183.586 154.51 168.641 154.501C167.091 154.501 165.525 154.501 163.926 154.501C163.926 149.175 163.926 144.501 163.926 139.45C165.557 139.438 166.904 139.438 168.267 139.438Z" fill="#09003C"/>
<path d="M98.832 195.267C98.5501 177.314 105.442 162.268 118.217 150.06C119.054 149.26 119.978 148.023 120.025 146.956C120.212 142.115 120.103 137.254 120.103 131.701C111.974 136.414 105.576 142.146 100.478 149.138C86.0371 168.944 81.2547 191.005 88.0255 214.983C94.1033 236.461 107.509 252.089 127.088 261.33C142.155 268.444 158.195 270.027 174.351 265.307C196.758 258.76 212.522 244.159 221.865 222.18C222.42 220.877 222.851 218.922 222.303 217.837C219.563 212.487 216.462 207.33 213.837 202.705C211.59 208.962 209.796 215.664 206.843 221.776C198.768 238.471 185.331 248.85 167.859 252.43C149.706 256.142 132.916 252.018 118.631 239.067C105.796 227.425 99.1055 212.712 98.832 195.267Z" fill="#09003C"/>
<path d="M146.565 42.0012C138.115 42.0982 128.671 50.0453 128.857 60.8176C128.716 71.6626 136.829 79.8747 146.971 79.7379C158.358 79.5681 164.976 71.6141 165.282 60.9302C165.574 50.6186 156.643 41.8834 146.565 42.0012Z" fill="#09003C"/>
<path d="M301.857 192H285.379L310.486 119.273H330.301L355.372 192H338.895L320.678 135.892H320.109L301.857 192ZM300.827 163.413H339.747V175.416H300.827V163.413ZM364.126 119.273H383.089L403.117 168.136H403.969L423.998 119.273H442.961V192H428.046V144.663H427.442L408.621 191.645H398.465L379.644 144.486H379.04V192H364.126V119.273ZM455.63 192V119.273H504.635V131.95H471.006V149.28H502.114V161.957H471.006V179.322H504.777V192H455.63ZM516.86 192V119.273H545.553C551.046 119.273 555.733 120.255 559.616 122.22C563.522 124.161 566.493 126.92 568.529 130.494C570.589 134.045 571.619 138.224 571.619 143.03C571.619 147.859 570.577 152.014 568.494 155.494C566.41 158.951 563.392 161.602 559.438 163.449C555.508 165.295 550.75 166.219 545.163 166.219H525.951V153.861H542.677C545.612 153.861 548.051 153.458 549.992 152.653C551.933 151.848 553.378 150.641 554.325 149.031C555.295 147.421 555.781 145.421 555.781 143.03C555.781 140.615 555.295 138.579 554.325 136.922C553.378 135.265 551.922 134.01 549.957 133.158C548.015 132.282 545.565 131.844 542.606 131.844H532.237V192H516.86ZM556.136 158.903L574.211 192H557.237L539.552 158.903H556.136ZM597.862 119.273V192H582.485V119.273H597.862ZM674.681 144.734H659.127C658.843 142.722 658.263 140.935 657.387 139.372C656.511 137.786 655.387 136.437 654.014 135.324C652.641 134.211 651.055 133.359 649.255 132.767C647.48 132.175 645.55 131.879 643.467 131.879C639.703 131.879 636.424 132.814 633.63 134.685C630.837 136.531 628.671 139.23 627.132 142.781C625.593 146.309 624.824 150.594 624.824 155.636C624.824 160.821 625.593 165.177 627.132 168.705C628.694 172.232 630.872 174.895 633.666 176.695C636.459 178.494 639.691 179.393 643.36 179.393C645.42 179.393 647.326 179.121 649.078 178.577C650.853 178.032 652.428 177.239 653.801 176.197C655.174 175.132 656.31 173.842 657.21 172.327C658.133 170.812 658.772 169.083 659.127 167.142L674.681 167.213C674.279 170.551 673.273 173.771 671.663 176.872C670.077 179.95 667.934 182.708 665.235 185.146C662.56 187.561 659.364 189.479 655.647 190.899C651.954 192.296 647.776 192.994 643.112 192.994C636.625 192.994 630.825 191.527 625.711 188.591C620.621 185.655 616.597 181.406 613.637 175.842C610.702 170.279 609.234 163.544 609.234 155.636C609.234 147.705 610.725 140.958 613.708 135.395C616.691 129.831 620.74 125.594 625.853 122.682C630.967 119.746 636.72 118.278 643.112 118.278C647.326 118.278 651.232 118.87 654.831 120.054C658.453 121.238 661.661 122.966 664.454 125.239C667.248 127.488 669.52 130.246 671.272 133.513C673.048 136.78 674.184 140.52 674.681 144.734ZM696.876 192H680.399L705.505 119.273H725.321L750.392 192H733.914L715.697 135.892H715.129L696.876 192ZM695.846 163.413H734.767V175.416H695.846V163.413ZM819.976 119.273V192H806.695L775.054 146.226H774.522V192H759.145V119.273H772.64L804.032 165.011H804.671V119.273H819.976Z" fill="#A40D0D"/>
<path d="M531.161 244V207.636H555.663V213.975H538.849V222.64H554.403V228.979H538.849V237.661H555.734V244H531.161ZM575.501 231.358H582.035L585.32 235.584L588.551 239.348L594.642 246.983H587.468L583.278 241.834L581.129 238.78L575.501 231.358ZM595.192 225.818C595.192 229.784 594.44 233.157 592.937 235.939C591.445 238.721 589.41 240.845 586.829 242.313C584.26 243.769 581.372 244.497 578.164 244.497C574.933 244.497 572.033 243.763 569.464 242.295C566.895 240.828 564.865 238.703 563.374 235.921C561.882 233.139 561.137 229.772 561.137 225.818C561.137 221.853 561.882 218.479 563.374 215.697C564.865 212.916 566.895 210.797 569.464 209.341C572.033 207.873 574.933 207.139 578.164 207.139C581.372 207.139 584.26 207.873 586.829 209.341C589.41 210.797 591.445 212.916 592.937 215.697C594.44 218.479 595.192 221.853 595.192 225.818ZM587.397 225.818C587.397 223.25 587.012 221.083 586.243 219.32C585.485 217.556 584.414 216.218 583.029 215.307C581.644 214.395 580.023 213.94 578.164 213.94C576.306 213.94 574.684 214.395 573.299 215.307C571.914 216.218 570.837 217.556 570.068 219.32C569.31 221.083 568.931 223.25 568.931 225.818C568.931 228.387 569.31 230.553 570.068 232.317C570.837 234.08 571.914 235.418 573.299 236.33C574.684 237.241 576.306 237.697 578.164 237.697C580.023 237.697 581.644 237.241 583.029 236.33C584.414 235.418 585.485 234.08 586.243 232.317C587.012 230.553 587.397 228.387 587.397 225.818ZM623.348 207.636H631.036V231.251C631.036 233.903 630.403 236.223 629.136 238.212C627.882 240.2 626.124 241.751 623.863 242.864C621.602 243.964 618.968 244.515 615.962 244.515C612.943 244.515 610.304 243.964 608.043 242.864C605.782 241.751 604.024 240.2 602.769 238.212C601.514 236.223 600.887 233.903 600.887 231.251V207.636H608.575V230.594C608.575 231.979 608.877 233.21 609.481 234.288C610.096 235.365 610.96 236.211 612.073 236.827C613.186 237.442 614.482 237.75 615.962 237.75C617.453 237.75 618.749 237.442 619.85 236.827C620.963 236.211 621.821 235.365 622.425 234.288C623.04 233.21 623.348 231.979 623.348 230.594V207.636ZM645.05 207.636V244H637.362V207.636H645.05ZM651.375 244V207.636H665.722C668.48 207.636 670.83 208.163 672.771 209.217C674.712 210.258 676.192 211.708 677.21 213.567C678.24 215.413 678.755 217.544 678.755 219.959C678.755 222.374 678.234 224.504 677.192 226.351C676.15 228.197 674.641 229.636 672.664 230.665C670.699 231.695 668.32 232.21 665.527 232.21H656.382V226.049H664.284C665.763 226.049 666.983 225.795 667.941 225.286C668.912 224.765 669.634 224.049 670.108 223.137C670.593 222.214 670.836 221.154 670.836 219.959C670.836 218.751 670.593 217.698 670.108 216.798C669.634 215.887 668.912 215.183 667.941 214.685C666.971 214.176 665.74 213.922 664.248 213.922H659.064V244H651.375ZM683.748 207.636H693.23L703.244 232.068H703.67L713.684 207.636H723.166V244H715.709V220.332H715.407L705.996 243.822H700.918L691.508 220.243H691.206V244H683.748V207.636ZM729.5 244V207.636H754.003V213.975H737.189V222.64H752.743V228.979H737.189V237.661H754.074V244H729.5ZM790.531 207.636V244H783.89L768.07 221.113H767.804V244H760.116V207.636H766.863L782.559 230.506H782.878V207.636H790.531ZM795.498 213.975V207.636H825.363V213.975H814.23V244H806.631V213.975H795.498Z" fill="#09003C"/>
<path d="M286.161 207.636H295.642L305.656 232.068H306.082L316.097 207.636H325.578V244H318.121V220.332H317.819L308.408 243.822H303.33L293.92 220.243H293.618V244H286.161V207.636ZM331.912 244V207.636H356.415V213.975H339.601V222.64H355.155V228.979H339.601V237.661H356.486V244H331.912ZM375.418 244H362.528V207.636H375.525C379.183 207.636 382.331 208.364 384.971 209.82C387.611 211.264 389.641 213.342 391.061 216.053C392.493 218.763 393.21 222.007 393.21 225.783C393.21 229.571 392.493 232.826 391.061 235.548C389.641 238.271 387.599 240.36 384.935 241.816C382.284 243.272 379.112 244 375.418 244ZM370.216 237.413H375.099C377.371 237.413 379.283 237.01 380.834 236.205C382.396 235.388 383.568 234.128 384.349 232.423C385.143 230.707 385.539 228.493 385.539 225.783C385.539 223.096 385.143 220.9 384.349 219.195C383.568 217.491 382.402 216.236 380.852 215.431C379.301 214.626 377.389 214.224 375.116 214.224H370.216V237.413ZM406.593 207.636V244H398.905V207.636H406.593ZM445.003 220.367H437.226C437.084 219.361 436.794 218.467 436.356 217.686C435.918 216.893 435.356 216.218 434.669 215.662C433.982 215.106 433.189 214.679 432.29 214.384C431.402 214.088 430.437 213.94 429.396 213.94C427.513 213.94 425.874 214.407 424.477 215.342C423.08 216.266 421.997 217.615 421.228 219.391C420.459 221.154 420.074 223.297 420.074 225.818C420.074 228.411 420.459 230.589 421.228 232.352C422.009 234.116 423.098 235.448 424.495 236.347C425.892 237.247 427.508 237.697 429.342 237.697C430.372 237.697 431.325 237.561 432.201 237.288C433.089 237.016 433.876 236.62 434.562 236.099C435.249 235.566 435.817 234.921 436.267 234.163C436.729 233.406 437.048 232.542 437.226 231.571L445.003 231.607C444.802 233.276 444.299 234.885 443.494 236.436C442.701 237.975 441.629 239.354 440.28 240.573C438.942 241.781 437.344 242.739 435.486 243.45C433.639 244.148 431.55 244.497 429.218 244.497C425.975 244.497 423.075 243.763 420.518 242.295C417.973 240.828 415.96 238.703 414.481 235.921C413.013 233.139 412.279 229.772 412.279 225.818C412.279 221.853 413.025 218.479 414.516 215.697C416.008 212.916 418.032 210.797 420.589 209.341C423.146 207.873 426.022 207.139 429.218 207.139C431.325 207.139 433.278 207.435 435.077 208.027C436.888 208.619 438.492 209.483 439.889 210.619C441.286 211.744 442.422 213.123 443.298 214.756C444.186 216.39 444.754 218.26 445.003 220.367ZM456.1 244H447.862L460.415 207.636H470.322L482.858 244H474.619L465.511 215.946H465.227L456.1 244ZM455.585 229.707H475.045V235.708H455.585V229.707ZM487.235 244V207.636H494.923V237.661H510.512V244H487.235Z" fill="white"/>
</g>
<defs>
<clipPath id="clip0_1_34">
<rect width="802" height="226" fill="white" transform="translate(80 42)"/>
</clipPath>
</defs>
</svg>
